<?xml version="1.0" encoding="UTF-8"?>
<svg width="250px" height="305px" viewBox="0 0 250 305" version="1.1" xmlns="http://www.w3.org/2000/svg" xmlns:xlink="http://www.w3.org/1999/xlink" xml:space="preserve" xmlns:serif="http://www.serif.com/" style="fill-rule:evenodd;clip-rule:evenodd;stroke-linejoin:round;stroke-miterlimit:2;">
<!-- Generator: Sketch 43.2 (39069) - http://www.bohemiancoding.com/sketch -->
<title>tiger</title>
    <desc>Created with Sketch.</desc>
    <defs><linearGradient id="_Linear1" x1="0" y1="0" x2="1" y2="0" gradientUnits="userSpaceOnUse" gradientTransform="matrix(1.96892e-14,321.549,-393.469,2.40931e-14,950.486,376.371)"><stop offset="0" style="stop-color:rgb(139,97,28);stop-opacity:1"/><stop offset="1" style="stop-color:rgb(238,217,128);stop-opacity:1"/></linearGradient></defs>
    <g transform="matrix(1,0,0,1,-835.375,-387.5)">
        <path id="XMLID_229_" d="M848.238,499.619C822.453,544.364 838.845,612.267 867.359,653.439C881.592,674.023 896.002,692.5 915.739,692.5C916.111,692.5 916.484,692.493 916.866,692.478C926.139,692.108 932.84,689.253 939.319,686.494C946.593,683.394 954.116,680.189 965.916,680.189C977.142,680.189 984.306,683.29 991.234,686.288C998.062,689.242 1005.1,692.298 1015.49,692.103C1037.72,691.689 1051.37,671.751 1063.41,654.162C1075.98,635.797 1082.28,617.966 1084.41,611.152L1084.5,610.881C1084.9,609.67 1084.33,608.348 1083.17,607.815C1083.14,607.8 1083.02,607.751 1082.99,607.737C1079.07,606.136 1044.73,590.901 1044.37,549.377C1044.03,515.641 1070.13,497.776 1075.36,494.538L1075.61,494.386C1076.17,494.021 1076.57,493.442 1076.7,492.78C1076.84,492.119 1076.7,491.431 1076.32,490.875C1058.3,464.513 1030.69,460.54 1019.58,460.062C1017.97,459.901 1016.3,459.82 1014.63,459.82C1001.57,459.82 989.065,464.751 979.017,468.713C972.081,471.448 966.09,473.81 961.958,473.81C957.315,473.81 951.29,471.419 944.313,468.651C934.983,464.948 924.408,460.752 913.213,460.752C912.946,460.752 912.683,460.755 912.424,460.76C886.394,461.143 861.798,476.035 848.238,499.619ZM1019.6,387.502C1003.84,388.144 984.929,397.847 973.627,411.085C964.022,422.212 954.639,440.764 957.111,459.464C957.266,460.634 958.218,461.537 959.395,461.628C960.459,461.711 961.545,461.753 962.627,461.754C978.04,461.754 994.667,453.227 1006.02,439.497C1017.97,424.999 1024.02,406.393 1022.19,389.727C1022.04,388.421 1020.89,387.451 1019.6,387.502Z" style="fill:url(#_Linear1);fill-rule:nonzero;"/>
    </g>
</svg>
