<svg xmlns="http://www.w3.org/2000/svg" width="34.758" height="34.758" viewBox="0 0 34.758 34.758"><defs><style>.a,.d{fill:none;}.a{stroke:#ccc;stroke-width:2px;}.b{stroke:#000;}.c{stroke:none;}</style></defs><g transform="translate(-171 -317)"><g transform="translate(171 317)"><g class="a" transform="translate(0 0)"><circle class="c" cx="17.379" cy="17.379" r="17.379"/><circle class="d" cx="17.379" cy="17.379" r="16.379"/></g></g><g transform="translate(177.743 325.932)"><g transform="translate(1.257 1.068)"><g transform="translate(0 0)"><path class="b" d="M16.768,39.881a5.043,5.043,0,0,0-7.174-.041l-.492.492L8.61,39.84a5.044,5.044,0,0,0-7.133,7.133l6.3,6.3a1.87,1.87,0,0,0,2.641,0l6.263-6.263A5.09,5.09,0,0,0,16.768,39.881Zm-.742,6.472L9.762,52.616a.935.935,0,0,1-1.321,0l-6.3-6.3A4.11,4.11,0,1,1,7.95,40.5l.492.492-.754.755a.467.467,0,1,0,.661.66L10.254,40.5a4.109,4.109,0,0,1,5.845.034A4.153,4.153,0,0,1,16.025,46.353Z" transform="translate(0 -38.362)"/></g></g><g transform="translate(14.743 2.81)"><g transform="translate(0 0)"><path d="M382.776,90.485a3.411,3.411,0,0,0-2.483-3.073.467.467,0,0,0-.25.9,2.477,2.477,0,0,1,1.8,2.231.467.467,0,0,0,.466.438h.029A.467.467,0,0,0,382.776,90.485Z" transform="translate(-380.701 -86.395)"/></g></g></g></g></svg>